<?xml version="1.0" encoding="UTF-8" standalone="no"?>
<!-- Created with Inkscape (http://www.inkscape.org/) -->

<svg
   xmlns:dc="http://purl.org/dc/elements/1.1/"
   xmlns:cc="http://creativecommons.org/ns#"
   xmlns:rdf="http://www.w3.org/1999/02/22-rdf-syntax-ns#"
   xmlns:svg="http://www.w3.org/2000/svg"
   xmlns="http://www.w3.org/2000/svg"
   xmlns:xlink="http://www.w3.org/1999/xlink"
   xmlns:sodipodi="http://sodipodi.sourceforge.net/DTD/sodipodi-0.dtd"
   xmlns:inkscape="http://www.inkscape.org/namespaces/inkscape"
   width="16"
   height="9"
   viewBox="0 0 4.2333332 2.3812501"
   version="1.1"
   id="svg8"
   inkscape:version="0.92.2 2405546, 2018-03-11"
   sodipodi:docname="thephotoBackground.svg">
  <defs
     id="defs2">
    <linearGradient
       id="linearGradient4138"
       inkscape:collect="always">
      <stop
         id="stop4140"
         offset="0"
         style="stop-color:#ff6400;stop-opacity:1;" />
      <stop
         id="stop4142"
         offset="1"
         style="stop-color:#ffc800;stop-opacity:1" />
    </linearGradient>
    <linearGradient
       inkscape:collect="always"
       xlink:href="#linearGradient4138"
       id="linearGradient843"
       x1="0"
       y1="296.99997"
       x2="4.2333331"
       y2="294.61874"
       gradientUnits="userSpaceOnUse" />
  </defs>
  <sodipodi:namedview
     id="base"
     pagecolor="#ffffff"
     bordercolor="#666666"
     borderopacity="1.0"
     inkscape:pageopacity="0.0"
     inkscape:pageshadow="2"
     inkscape:zoom="44.8"
     inkscape:cx="8.5422375"
     inkscape:cy="7.1328358"
     inkscape:document-units="mm"
     inkscape:current-layer="layer1"
     showgrid="true"
     units="px"
     showguides="false"
     inkscape:window-width="1920"
     inkscape:window-height="1046"
     inkscape:window-x="0"
     inkscape:window-y="0"
     inkscape:window-maximized="1">
    <inkscape:grid
       type="xygrid"
       id="grid815"
       empspacing="4" />
    <inkscape:grid
       type="xygrid"
       id="grid817"
       empspacing="1"
       spacingx="0.26458333"
       originy="0.13229167"
       originx="0.13229167"
       dotted="true" />
  </sodipodi:namedview>
  <metadata
     id="metadata5">
    <rdf:RDF>
      <cc:Work
         rdf:about="">
        <dc:format>image/svg+xml</dc:format>
        <dc:type
           rdf:resource="http://purl.org/dc/dcmitype/StillImage" />
        <dc:title></dc:title>
      </cc:Work>
    </rdf:RDF>
  </metadata>
  <g
     inkscape:label="Layer 1"
     inkscape:groupmode="layer"
     id="layer1"
     transform="translate(0,-294.61873)">
    <rect
       style="opacity:1;fill:url(#linearGradient843);fill-opacity:1;stroke:none;stroke-width:0.13229166;stroke-linecap:round;stroke-linejoin:round;stroke-miterlimit:4;stroke-dasharray:none;stroke-opacity:1;paint-order:normal"
       id="rect835"
       width="4.2333331"
       height="2.3812499"
       x="0"
       y="294.61874" />
    <g
       transform="matrix(0.05474138,0,0,0.05474138,0.71163794,239.07746)"
       id="layer1-6"
       inkscape:label="Layer 1"
       style="fill:#ffffff;fill-opacity:1">
      <path
         id="path4136"
         transform="translate(0,1020.3622)"
         d="M 16,1.5 A 14.5,14.5 0 0 0 1.5,16 14.5,14.5 0 0 0 16,30.5 14.5,14.5 0 0 0 30.5,16 14.5,14.5 0 0 0 16,1.5 Z M 13,10 c 1.770406,0 3.359654,0.77595 4.458984,2 H 21 V 10.5 10 h 6 v 2 h 1 v 8 H 17.458984 C 16.359654,21.22405 14.770406,22 13,22 11.229594,22 9.6403461,21.22405 8.5410156,20 H 4 V 12.5 12 H 8.5410156 C 9.6403461,10.77595 11.229594,10 13,10 Z m 0,1 c -2.767346,0 -5,2.2327 -5,5 0,2.7674 2.232654,5 5,5 2.767346,0 5,-2.2326 5,-5 0,-2.7673 -2.232654,-5 -5,-5 z m 9,0 v 1 h 4 V 11 Z M 5,13 v 6 H 7.8105469 C 7.2974131,18.116248 7,17.093181 7,16 7,14.906819 7.2974131,13.883752 7.8105469,13 Z m 13.189453,0 C 18.702587,13.883752 19,14.906819 19,16 c 0,1.093181 -0.297413,2.116248 -0.810547,3 H 27 v -6 h -6 z"
         style="opacity:1;fill:#ffffff;fill-opacity:1;stroke:none;stroke-width:1;stroke-linecap:round;stroke-linejoin:miter;stroke-miterlimit:4;stroke-dasharray:none;stroke-opacity:1"
         inkscape:connector-curvature="0" />
    </g>
    <path
       style="opacity:1;fill:none;fill-opacity:1;stroke:#ffffff;stroke-width:0.26458332;stroke-linecap:round;stroke-linejoin:round;stroke-miterlimit:4;stroke-dasharray:none;stroke-opacity:1;paint-order:normal"
       id="path845"
       d="m 2.593321,294.09878 a 1.984375,1.984375 0 0 1 0.9740738,1.57731 1.984375,1.984375 0 0 1 -0.7539052,1.69362"
       sodipodi:type="arc"
       sodipodi:open="true"
       sodipodi:start="5.2439394"
       sodipodi:end="0.90482709"
       sodipodi:ry="1.984375"
       sodipodi:rx="1.984375"
       sodipodi:cy="295.80936"
       sodipodi:cx="1.5875" />
  </g>
</svg>
