<?xml version="1.0" encoding="UTF-8" standalone="no"?>
<!-- Created with Inkscape (http://www.inkscape.org/) -->

<svg
   xmlns:dc="http://purl.org/dc/elements/1.1/"
   xmlns:cc="http://creativecommons.org/ns#"
   xmlns:rdf="http://www.w3.org/1999/02/22-rdf-syntax-ns#"
   xmlns:svg="http://www.w3.org/2000/svg"
   xmlns="http://www.w3.org/2000/svg"
   xmlns:xlink="http://www.w3.org/1999/xlink"
   xmlns:sodipodi="http://sodipodi.sourceforge.net/DTD/sodipodi-0.dtd"
   xmlns:inkscape="http://www.inkscape.org/namespaces/inkscape"
   width="32"
   height="32"
   viewBox="0 0 8.4666665 8.4666669"
   version="1.1"
   id="svg20249"
   inkscape:version="0.92.4 5da689c313, 2019-01-14"
   sodipodi:docname="theterminal.svg">
  <defs
     id="defs20243">
    <linearGradient
       inkscape:collect="always"
       xlink:href="#linearGradient820"
       id="linearGradient822-687"
       x1="4.6862917"
       y1="35.595917"
       x2="27.313709"
       y2="-3.5959179"
       gradientUnits="userSpaceOnUse"
       gradientTransform="matrix(0.26458333,0,0,0.26458333,75.629309,277.46181)" />
    <linearGradient
       inkscape:collect="always"
       id="linearGradient820">
      <stop
         style="stop-color:#003296;stop-opacity:1"
         offset="0"
         id="stop816" />
      <stop
         style="stop-color:#0064c8;stop-opacity:1"
         offset="1"
         id="stop818" />
    </linearGradient>
  </defs>
  <sodipodi:namedview
     id="base"
     pagecolor="#ffffff"
     bordercolor="#666666"
     borderopacity="1.0"
     inkscape:pageopacity="0.0"
     inkscape:pageshadow="2"
     inkscape:zoom="11.2"
     inkscape:cx="12.514557"
     inkscape:cy="21.901745"
     inkscape:document-units="mm"
     inkscape:current-layer="layer1"
     showgrid="true"
     units="px"
     inkscape:window-width="1280"
     inkscape:window-height="742"
     inkscape:window-x="1920"
     inkscape:window-y="304"
     inkscape:window-maximized="1">
    <inkscape:grid
       type="xygrid"
       id="grid20794"
       empspacing="4" />
    <inkscape:grid
       type="xygrid"
       id="grid20796"
       empspacing="1"
       originy="0.13229167"
       originx="0.13229167"
       dotted="true" />
  </sodipodi:namedview>
  <metadata
     id="metadata20246">
    <rdf:RDF>
      <cc:Work
         rdf:about="">
        <dc:format>image/svg+xml</dc:format>
        <dc:type
           rdf:resource="http://purl.org/dc/dcmitype/StillImage" />
        <dc:title></dc:title>
      </cc:Work>
    </rdf:RDF>
  </metadata>
  <g
     inkscape:label="Layer 1"
     inkscape:groupmode="layer"
     id="layer1"
     transform="translate(0,-288.53332)">
    <circle
       style="opacity:1;fill:url(#linearGradient822-687);fill-opacity:1;stroke:none;stroke-width:0.26458332;stroke-linecap:round;stroke-linejoin:round;stroke-miterlimit:4;stroke-dasharray:none;stroke-dashoffset:0;stroke-opacity:1;paint-order:normal"
       id="path814-3"
       cx="79.862602"
       cy="281.69516"
       r="4.2333331"
       transform="rotate(15)"
       inkscape:export-filename="/home/victor/newcontemporary.png"
       inkscape:export-xdpi="2165.5593"
       inkscape:export-ydpi="2165.5593" />
    <path
       style="opacity:1;fill:#000000;fill-opacity:1;stroke:none;stroke-width:0.36035824;stroke-linecap:round;stroke-linejoin:round;stroke-miterlimit:4;stroke-dasharray:none;stroke-dashoffset:0;stroke-opacity:1;paint-order:normal"
       d="m 4.5072484,291.74434 c -0.5663398,-0.15175 -1.1444399,0.18201 -1.2961898,0.74835 l -1.0594201,3.95382 a 4.2333333,4.2333333 0 0 0 0.98603,0.40919 4.2333333,4.2333333 0 0 0 5.1847501,-2.99342 4.2333333,4.2333333 0 0 0 0.1406398,-1.05799 z"
       id="rect824-3"
       inkscape:connector-curvature="0"
       inkscape:export-filename="/home/victor/newcontemporary.png"
       inkscape:export-xdpi="2165.5593"
       inkscape:export-ydpi="2165.5593" />
    <g
       aria-label="$"
       transform="rotate(15)"
       style="font-style:normal;font-variant:normal;font-weight:normal;font-stretch:normal;font-size:4.06419373px;line-height:1.25;font-family:Contemporary;-inkscape-font-specification:Contemporary;letter-spacing:0px;word-spacing:0px;fill:#ffffff;fill-opacity:1;stroke:none;stroke-width:0.10160486"
       id="text881-3">
      <path
         d="m 81.084874,281.79032 q 0.247916,0.0366 0.434869,0.1585 0.191017,0.12193 0.292622,0.27637 0.101604,0.15443 0.109733,0.28449 0.0041,0.0366 -0.02439,0.065 -0.02845,0.0244 -0.06503,0.0244 h -0.166632 q -0.04877,0 -0.07316,-0.0163 -0.02439,-0.0203 -0.05283,-0.0731 -0.06503,-0.12599 -0.227595,-0.24792 -0.158504,-0.12192 -0.422676,-0.12192 -0.243852,0 -0.414548,0.10973 -0.166632,0.10973 -0.166632,0.31294 0,0.13819 0.08128,0.2276 0.08535,0.0853 0.25198,0.15037 0.170696,0.061 0.512088,0.15038 0.463318,0.12192 0.654335,0.30075 0.195082,0.17476 0.195082,0.47957 0,0.33327 -0.25198,0.5568 -0.247916,0.22353 -0.666528,0.26417 v 0.26417 q 0,0.0447 -0.03251,0.0772 -0.03251,0.0325 -0.07722,0.0325 h -0.166632 q -0.04471,0 -0.07722,-0.0325 -0.03251,-0.0325 -0.03251,-0.0772 v -0.2723 q -0.247916,-0.0366 -0.447062,-0.15444 -0.199145,-0.11786 -0.312943,-0.2723 -0.113797,-0.1585 -0.117861,-0.31294 0,-0.0366 0.02438,-0.061 0.02845,-0.0284 0.06503,-0.0284 h 0.166632 q 0.04471,0 0.07315,0.0203 0.02845,0.0163 0.05284,0.0691 0.06503,0.14631 0.235723,0.26824 0.17476,0.12192 0.471447,0.12192 0.296686,0 0.499895,-0.12599 0.207274,-0.13005 0.207274,-0.33733 0,-0.13411 -0.109733,-0.22353 -0.105669,-0.0935 -0.292622,-0.15444 -0.186953,-0.065 -0.548666,-0.1585 -0.394227,-0.1016 -0.568987,-0.29262 -0.17476,-0.19508 -0.17476,-0.47958 0,-0.18695 0.08535,-0.34952 0.08941,-0.16663 0.264172,-0.28043 0.174761,-0.11379 0.426741,-0.14631 v -0.26823 q 0,-0.0447 0.03251,-0.0772 0.03251,-0.0325 0.07722,-0.0325 h 0.166632 q 0.04471,0 0.07722,0.0325 0.03251,0.0325 0.03251,0.0772 z"
         style="stroke-width:0.10160486"
         id="path825" />
    </g>
  </g>
</svg>
