<?xml version="1.0" encoding="UTF-8" standalone="no"?>
<!-- Created with Inkscape (http://www.inkscape.org/) -->

<svg
   xmlns:dc="http://purl.org/dc/elements/1.1/"
   xmlns:cc="http://creativecommons.org/ns#"
   xmlns:rdf="http://www.w3.org/1999/02/22-rdf-syntax-ns#"
   xmlns:svg="http://www.w3.org/2000/svg"
   xmlns="http://www.w3.org/2000/svg"
   xmlns:sodipodi="http://sodipodi.sourceforge.net/DTD/sodipodi-0.dtd"
   xmlns:inkscape="http://www.inkscape.org/namespaces/inkscape"
   width="16"
   height="9"
   viewBox="0 0 4.2333332 2.3812501"
   version="1.1"
   id="svg8"
   inkscape:version="0.92.2 2405546, 2018-03-11"
   sodipodi:docname="translatesplash.svg">
  <defs
     id="defs2" />
  <sodipodi:namedview
     id="base"
     pagecolor="#ffffff"
     bordercolor="#666666"
     borderopacity="1.0"
     inkscape:pageopacity="0.0"
     inkscape:pageshadow="2"
     inkscape:zoom="63.356767"
     inkscape:cx="8.3259177"
     inkscape:cy="4.2099995"
     inkscape:document-units="mm"
     inkscape:current-layer="layer1"
     showgrid="true"
     units="px"
     inkscape:window-width="1920"
     inkscape:window-height="1046"
     inkscape:window-x="0"
     inkscape:window-y="0"
     inkscape:window-maximized="1">
    <inkscape:grid
       type="xygrid"
       id="grid815" />
    <inkscape:grid
       type="xygrid"
       id="grid817"
       originx="0.13229167"
       originy="0.13229167"
       dotted="true"
       empspacing="1" />
  </sodipodi:namedview>
  <metadata
     id="metadata5">
    <rdf:RDF>
      <cc:Work
         rdf:about="">
        <dc:format>image/svg+xml</dc:format>
        <dc:type
           rdf:resource="http://purl.org/dc/dcmitype/StillImage" />
        <dc:title></dc:title>
      </cc:Work>
    </rdf:RDF>
  </metadata>
  <g
     inkscape:label="Layer 1"
     inkscape:groupmode="layer"
     id="layer1"
     transform="translate(0,-294.61873)">
    <rect
       style="opacity:1;fill:#6464ff;fill-opacity:1;stroke:none;stroke-width:0.26458332;stroke-linecap:round;stroke-linejoin:round;stroke-miterlimit:4;stroke-dasharray:none;stroke-opacity:0.49803922;paint-order:normal"
       id="rect835"
       width="4.2333331"
       height="2.3812499"
       x="0"
       y="294.61874" />
    <g
       aria-label="文"
       style="font-style:normal;font-variant:normal;font-weight:normal;font-stretch:normal;font-size:10.8348074px;line-height:13.72015667px;font-family:contemporary;-inkscape-font-specification:'contemporary, Normal';text-align:start;letter-spacing:0px;word-spacing:0px;writing-mode:lr-tb;text-anchor:start;fill:#ffffff;fill-opacity:1;stroke:none;stroke-width:1.173913px;stroke-linecap:butt;stroke-linejoin:miter;stroke-opacity:1"
       id="text4509"
       transform="matrix(0.02190529,0.0058695,-0.0058695,0.02190529,3.0288331,295.12558)">
      <path
         d="M 19.852321,10.291674 H 17.979508 V 9.5880463 h 4.195313 v -1.941589 h 0.825308 v 1.941589 h 4.27467 v 0.7036277 h -2.036817 q -0.618981,2.43889 -1.95746,3.957244 1.528935,1.163895 3.951953,1.809328 l -0.608399,0.809437 q -2.401857,-0.772404 -3.914921,-2.06856 -1.740553,1.507774 -4.15299,2.253725 l -0.576657,-0.804146 q 2.634635,-0.634852 4.163571,-1.968041 -1.491903,-1.539516 -2.290758,-3.988987 z m 0.814727,0 q 0.719499,2.137335 2.020945,3.433491 1.174476,-1.370222 1.677068,-3.433491 z"
         style="fill:#ffffff;fill-opacity:1;stroke-width:1.173913px"
         id="path4487"
         inkscape:connector-curvature="0" />
    </g>
    <path
       style="opacity:0.98999999;fill:none;fill-opacity:1;fill-rule:nonzero;stroke:#ffffff;stroke-width:0.02662201;stroke-linecap:round;stroke-linejoin:round;stroke-miterlimit:4;stroke-dasharray:none;stroke-dashoffset:0;stroke-opacity:1;paint-order:fill markers stroke"
       d="m 3.0513139,295.26074 -0.1291274,0.48191 0.2221972,-0.12828 0.4162002,0.11152 0.082172,-0.30668 z"
       id="path4497"
       inkscape:connector-curvature="0" />
    <path
       style="opacity:0.98999999;fill:#ffffff;fill-opacity:1;fill-rule:nonzero;stroke:none;stroke-width:0.02662201;stroke-linecap:round;stroke-linejoin:round;stroke-miterlimit:4;stroke-dasharray:none;stroke-dashoffset:0;stroke-opacity:1;paint-order:fill markers stroke"
       d="m 3.0513139,295.26074 -0.1291274,0.48191 0.2221972,-0.12828 0.1095264,0.0293 0.082172,-0.30667 z m 0.1207567,0.0891 0.018397,0.005 c 0.00654,0.002 0.010085,0.007 0.011084,0.0137 l 0.02297,0.21342 c 2.987e-4,0.002 1.624e-4,0.004 1.624e-4,0.004 -5.176e-4,0.002 -0.00174,0.004 -0.00344,0.004 -0.00149,6.4e-4 -0.00326,10e-4 -0.0051,7.1e-4 l -0.011334,-0.003 c -0.00613,-0.002 -0.00962,-0.005 -0.00991,-0.0109 l -0.00499,-0.045 -0.1063147,-0.0285 -0.02688,0.0365 c -0.00313,0.004 -0.00788,0.006 -0.014007,0.005 l -0.011338,-0.003 c -0.00184,-4.9e-4 -0.00333,-0.002 -0.00441,-0.003 -9.679e-4,-10e-4 -0.00107,-0.003 -5.508e-4,-0.005 2.588e-4,-9.7e-4 9.414e-4,-0.002 0.00228,-0.004 l 0.1269008,-0.17326 c 0.00447,-0.006 0.00993,-0.008 0.016468,-0.006 z m 0.00141,0.0315 -0.071927,0.098 0.084883,0.0227 z"
       id="path4499"
       inkscape:connector-curvature="0" />
    <g
       aria-label="文"
       style="font-style:normal;font-variant:normal;font-weight:normal;font-stretch:normal;font-size:10.8348074px;line-height:13.72015667px;font-family:contemporary;-inkscape-font-specification:'contemporary, Normal';text-align:start;letter-spacing:0px;word-spacing:0px;writing-mode:lr-tb;text-anchor:start;fill:#ffffff;fill-opacity:1;stroke:none;stroke-width:1.173913px;stroke-linecap:butt;stroke-linejoin:miter;stroke-opacity:1"
       id="text4509-7"
       transform="matrix(-0.02190529,0.0058695,0.0058695,0.02190529,1.3485618,295.58916)">
      <path
         d="M 19.852321,10.291674 H 17.979508 V 9.5880463 h 4.195313 v -1.941589 h 0.825308 v 1.941589 h 4.27467 v 0.7036277 h -2.036817 q -0.618981,2.43889 -1.95746,3.957244 1.528935,1.163895 3.951953,1.809328 l -0.608399,0.809437 q -2.401857,-0.772404 -3.914921,-2.06856 -1.740553,1.507774 -4.15299,2.253725 l -0.576657,-0.804146 q 2.634635,-0.634852 4.163571,-1.968041 -1.491903,-1.539516 -2.290758,-3.988987 z m 0.814727,0 q 0.719499,2.137335 2.020945,3.433491 1.174476,-1.370222 1.677068,-3.433491 z"
         style="fill:#ffffff;fill-opacity:1;stroke-width:1.173913px"
         id="path4487-5"
         inkscape:connector-curvature="0" />
    </g>
    <path
       style="opacity:0.98999999;fill:none;fill-opacity:1;fill-rule:nonzero;stroke:#ffffff;stroke-width:0.02662201;stroke-linecap:round;stroke-linejoin:round;stroke-miterlimit:4;stroke-dasharray:none;stroke-dashoffset:0;stroke-opacity:1;paint-order:fill markers stroke"
       d="m 1.3260809,295.72432 0.1291274,0.48191 -0.2221972,-0.12828 -0.41620019,0.11152 -0.082172,-0.30668 z"
       id="path4497-3"
       inkscape:connector-curvature="0" />
    <path
       style="opacity:0.98999999;fill:#ffffff;fill-opacity:1;fill-rule:nonzero;stroke:none;stroke-width:0.02662201;stroke-linecap:round;stroke-linejoin:round;stroke-miterlimit:4;stroke-dasharray:none;stroke-dashoffset:0;stroke-opacity:1;paint-order:fill markers stroke"
       d="m 1.3260809,295.72432 0.1291274,0.48191 -0.2221972,-0.12828 -0.1095264,0.0293 -0.082172,-0.30667 z m -0.1207567,0.0891 -0.018397,0.005 c -0.00654,0.002 -0.010085,0.007 -0.011084,0.0137 l -0.02297,0.21342 c -2.99e-4,0.002 -1.624e-4,0.004 -1.624e-4,0.004 5.186e-4,0.002 0.00174,0.004 0.00344,0.004 0.00149,6.4e-4 0.00326,10e-4 0.0051,7.1e-4 l 0.011334,-0.003 c 0.00613,-0.002 0.00962,-0.005 0.00991,-0.0109 l 0.00499,-0.045 0.1063147,-0.0285 0.02688,0.0365 c 0.00313,0.004 0.00788,0.006 0.014007,0.005 l 0.011338,-0.003 c 0.00184,-4.9e-4 0.00333,-0.002 0.00441,-0.003 9.679e-4,-10e-4 0.00107,-0.003 5.509e-4,-0.005 -2.588e-4,-9.7e-4 -9.414e-4,-0.002 -0.00228,-0.004 l -0.126901,-0.17326 c -0.00447,-0.006 -0.00993,-0.008 -0.016468,-0.006 z m -0.00141,0.0315 0.071927,0.098 -0.084883,0.0227 z"
       id="path4499-5"
       inkscape:connector-curvature="0" />
    <circle
       style="opacity:1;fill:none;fill-opacity:1;stroke:#ffffff;stroke-width:0.13229167;stroke-linecap:round;stroke-linejoin:round;stroke-miterlimit:4;stroke-dasharray:none;stroke-opacity:1;paint-order:normal"
       id="path900"
       cx="2.1166666"
       cy="295.67706"
       r="0.52916664" />
  </g>
</svg>
