<?xml version="1.0" encoding="UTF-8" standalone="no"?>
<!-- Created with Inkscape (http://www.inkscape.org/) -->

<svg
   xmlns:dc="http://purl.org/dc/elements/1.1/"
   xmlns:cc="http://creativecommons.org/ns#"
   xmlns:rdf="http://www.w3.org/1999/02/22-rdf-syntax-ns#"
   xmlns:svg="http://www.w3.org/2000/svg"
   xmlns="http://www.w3.org/2000/svg"
   xmlns:sodipodi="http://sodipodi.sourceforge.net/DTD/sodipodi-0.dtd"
   xmlns:inkscape="http://www.inkscape.org/namespaces/inkscape"
   width="1920"
   height="600"
   viewBox="0 0 1920 600"
   id="svg2"
   version="1.1"
   inkscape:version="0.91 r13725"
   sodipodi:docname="transfertool.svg">
  <defs
     id="defs4" />
  <sodipodi:namedview
     id="base"
     pagecolor="#ffffff"
     bordercolor="#666666"
     borderopacity="1.0"
     inkscape:pageopacity="0.0"
     inkscape:pageshadow="2"
     inkscape:zoom="0.98333333"
     inkscape:cx="1158.0681"
     inkscape:cy="359.39169"
     inkscape:document-units="px"
     inkscape:current-layer="layer1"
     showgrid="false"
     units="px"
     showguides="false"
     borderlayer="true"
     inkscape:window-width="1680"
     inkscape:window-height="1007"
     inkscape:window-x="0"
     inkscape:window-y="0"
     inkscape:window-maximized="1" />
  <metadata
     id="metadata7">
    <rdf:RDF>
      <cc:Work
         rdf:about="">
        <dc:format>image/svg+xml</dc:format>
        <dc:type
           rdf:resource="http://purl.org/dc/dcmitype/StillImage" />
        <dc:title></dc:title>
      </cc:Work>
    </rdf:RDF>
  </metadata>
  <g
     inkscape:label="Layer 1"
     inkscape:groupmode="layer"
     id="layer1"
     transform="translate(0,-452.36216)">
    <g
       id="g4188"
       transform="translate(-89.2373,-113.72882)">
      <rect
         transform="matrix(0.8660254,-0.5,0.5,0.8660254,0,0)"
         ry="0.00042581026"
         y="275.31104"
         x="-524.74628"
         height="1000"
         width="1000"
         id="rect4136"
         style="opacity:1;fill:#9b0000;fill-opacity:1;fill-rule:nonzero;stroke:none;stroke-width:1;stroke-linecap:butt;stroke-linejoin:round;stroke-miterlimit:4;stroke-dasharray:none;stroke-opacity:1" />
      <rect
         transform="matrix(0.8660254,-0.5,0.5,0.8660254,0,0)"
         ry="0.00042581026"
         y="273.61612"
         x="475.25369"
         height="1000"
         width="1000"
         id="rect4136-4"
         style="opacity:1;fill:#00ff00;fill-opacity:1;fill-rule:nonzero;stroke:none;stroke-width:1;stroke-linecap:butt;stroke-linejoin:round;stroke-miterlimit:4;stroke-dasharray:none;stroke-opacity:1" />
      <rect
         transform="matrix(0.8660254,-0.5,0.5,0.8660254,0,0)"
         ry="0.00042581026"
         y="1275.311"
         x="-524.74628"
         height="1000"
         width="1000"
         id="rect4136-0"
         style="opacity:1;fill:#ffff00;fill-opacity:1;fill-rule:nonzero;stroke:none;stroke-width:1;stroke-linecap:butt;stroke-linejoin:round;stroke-miterlimit:4;stroke-dasharray:none;stroke-opacity:1" />
      <rect
         transform="matrix(0.8660254,-0.5,0.5,0.8660254,0,0)"
         ry="0.00042581026"
         y="1275.311"
         x="475.25369"
         height="1000"
         width="1000"
         id="rect4136-6"
         style="opacity:1;fill:#00ffff;fill-opacity:1;fill-rule:nonzero;stroke:none;stroke-width:1;stroke-linecap:butt;stroke-linejoin:round;stroke-miterlimit:4;stroke-dasharray:none;stroke-opacity:1" />
    </g>
    <path
       style="opacity:1;fill:#ffffff;fill-opacity:1;fill-rule:nonzero;stroke:none;stroke-width:1;stroke-linecap:butt;stroke-linejoin:round;stroke-miterlimit:4;stroke-dasharray:none;stroke-opacity:1"
       d="m 1443.9367,491.47067 0,229.35954 192.7152,0 0,-149.07458 -80.2849,-80.28496 -112.4303,0 z m 127.7851,0 64.9301,64.93018 0,-64.93018 -64.9301,0 z"
       id="rect4194"
       inkscape:connector-curvature="0" />
    <path
       style="opacity:1;fill:#ffffff;fill-opacity:1;fill-rule:nonzero;stroke:none;stroke-width:1;stroke-linecap:butt;stroke-linejoin:round;stroke-miterlimit:4;stroke-dasharray:none;stroke-opacity:1"
       d="m 1335.9398,672.13281 -99.0947,171.6371 226.6821,130.87503 99.0947,-171.63713 -226.6821,-130.875 z m 2.3133,5.99724 10.7881,6.2285 -6.2285,10.78811 -10.7881,-6.2285 6.2285,-10.78811 z m 17.2562,9.9629 10.7881,6.2285 -6.2285,10.78811 -10.7881,-6.2285 6.2285,-10.78811 z m 17.2562,9.96285 10.7882,6.22855 -6.2285,10.78811 -10.7882,-6.22855 6.2285,-10.78811 z m 17.2563,9.9629 10.7881,6.22855 -6.2285,10.78811 -10.7882,-6.22855 6.2286,-10.78811 z m 17.2562,9.9629 10.7881,6.2285 -6.2285,10.78811 -10.7881,-6.2285 6.2285,-10.78811 z m 17.2563,9.9629 10.788,6.2285 -6.2285,10.78811 -10.7881,-6.2285 6.2286,-10.78811 z m 17.2562,9.9629 10.7881,6.2285 -6.2285,10.78811 -10.7881,-6.2285 6.2285,-10.78811 z m 17.2563,9.9629 10.788,6.2285 -6.2285,10.78811 -10.7881,-6.2285 6.2286,-10.78811 z m 17.2561,9.96285 10.7882,6.22855 -6.2285,10.78811 -10.7882,-6.22855 6.2285,-10.78811 z m 17.2563,9.9629 10.788,6.2285 -6.2285,10.78811 -10.7881,-6.2285 6.2286,-10.78811 z m 17.2562,9.9629 10.7881,6.2285 -6.2285,10.78811 -10.7881,-6.2285 6.2285,-10.78811 z m 17.2563,9.9629 10.788,6.2285 -6.2285,10.78811 -10.7881,-6.2285 6.2286,-10.78811 z m 17.2562,9.9629 10.7881,6.2285 -6.2285,10.78811 -10.7881,-6.2285 6.2285,-10.78811 z m -297.2147,32.43542 10.7881,6.22855 -9e-4,0.002 -6.2276,10.78642 0,0.002 -10.7881,-6.22855 10e-4,-0.002 6.2275,-10.78642 10e-4,-0.002 z m 17.2562,9.9629 10.7881,6.2285 -10e-4,0.002 -6.2275,10.78642 -10e-4,0.002 -10.7881,-6.2285 0,-0.002 6.2275,-10.78642 0,-0.002 z m 17.2563,9.9629 10.788,6.2285 -9e-4,0.002 -6.2276,10.78642 -9e-4,0.002 -10.7881,-6.2285 0,-0.002 6.2275,-10.78642 0,-0.002 z m 17.2562,9.9629 10.7881,6.2285 -10e-4,0.002 -6.2275,10.78642 -10e-4,0.002 -10.7881,-6.2285 10e-4,-0.002 6.2275,-10.78642 10e-4,-0.002 z m 17.2562,9.96285 10.7881,6.22855 -9e-4,0.002 -6.2276,10.78642 -9e-4,0.002 -10.7882,-6.22855 10e-4,-0.002 6.2275,-10.78642 10e-4,-0.002 z m 17.2562,9.9629 10.7882,6.22855 -10e-4,0.002 -6.2275,10.78642 -10e-4,0.002 -10.7882,-6.22855 10e-4,-0.002 6.2276,-10.78642 9e-4,-0.002 z m 17.2563,9.9629 10.7881,6.2285 7e-4,0.003 -6.2275,10.78642 0,6.8e-4 -10.7881,-6.2285 10e-4,-0.002 6.2275,-10.78642 10e-4,-0.002 z m 17.2579,9.96385 10.7864,6.22755 8e-4,0.003 -6.2276,10.78642 0,6.8e-4 -10.7864,-6.22755 -7e-4,-0.003 6.2276,-10.78642 0,-7.4e-4 z m 17.2562,9.9629 10.7865,6.22755 7e-4,0.003 -6.2275,10.78642 0,6.8e-4 -10.7865,-6.22755 -6e-4,-0.003 6.2275,-10.78642 0,-7.4e-4 z m 17.2563,9.9629 10.7864,6.22755 7e-4,0.003 -6.2276,10.78642 0,7.3e-4 -10.7864,-6.22755 -7e-4,-0.003 6.2276,-10.78642 0,-7.4e-4 z m 17.2562,9.9629 10.7865,6.22755 6e-4,0.003 -6.2275,10.78642 0,7.3e-4 -10.7865,-6.22755 -7e-4,-0.003 6.2275,-10.78642 0,-6.9e-4 z m 17.2563,9.9629 10.788,6.2285 -9e-4,0.002 -6.2276,10.78638 -9e-4,0 -10.7881,-6.22848 -8e-4,-0.003 6.2276,-10.78642 0,-6.9e-4 z m 17.2562,9.9629 10.7881,6.22847 -10e-4,0 -6.2275,10.7864 -10e-4,0 -10.7881,-6.2285 -7e-4,0 6.2275,-10.78638 0,-6.9e-4 z"
       id="rect4226"
       inkscape:connector-curvature="0" />
  </g>
</svg>
